<svg width="153" height="43" viewBox="0 0 153 43" fill="none" xmlns="http://www.w3.org/2000/svg">
<g clip-path="url(#clip0_12001_6035)">
<path fill-rule="evenodd" clip-rule="evenodd" d="M47.7522 4.14878C47.7522 6.43858 49.5952 8.29953 51.8586 8.29953V8.3015C54.1239 8.3015 55.965 6.44054 55.965 4.15075C55.965 1.86095 54.122 0 51.8586 0C49.5952 0 47.7522 1.85898 47.7522 4.14878ZM76.4983 37.4531V21.9104C76.4983 20.4606 76.002 19.2941 74.9394 18.2338C73.869 17.1676 72.7169 16.6699 71.3137 16.6699C69.9105 16.6699 68.7194 17.1656 67.649 18.2338C66.5864 19.2921 66.0902 20.4606 66.0902 21.9104V37.4531H59.1676V22.237C59.1676 18.702 60.3314 15.7099 62.626 13.3414C64.9322 10.9631 67.8534 9.75524 71.3117 9.75524C74.7701 9.75524 77.6543 10.9611 79.9585 13.3414C82.2531 15.7099 83.4169 18.702 83.4169 22.237V37.4531H76.4983ZM86.9284 37.4531V31.9844L97.4358 17.079H87.3721V10.2864H106.857V15.7669L96.4432 30.6604H107.786V37.4531H86.9284ZM116.379 37.5023C114.116 37.5023 112.273 35.6413 112.273 33.3515C112.273 31.0618 114.116 29.2008 116.379 29.2008C118.643 29.2008 120.486 31.0618 120.486 33.3515C120.486 35.6413 118.645 37.5023 116.379 37.5023ZM34.3044 37.9823C34.4698 37.9882 34.6313 37.9901 34.7929 37.9901C38.44 37.9901 41.6434 36.621 44.3135 33.922C47.0888 31.1208 48.4939 27.6349 48.4939 23.8697C48.4939 20.1046 47.1861 16.8036 44.6113 14.0574C42.0248 11.3034 38.8312 9.84178 35.1159 9.71588C34.9544 9.70998 34.7948 9.70802 34.6352 9.70802C30.9842 9.70802 27.7847 11.0772 25.1262 13.7801C22.3685 16.5813 20.9712 20.1439 20.9712 23.911C20.9712 27.6782 22.2712 30.9713 24.8324 33.7017C27.4072 36.4479 30.5969 37.8879 34.3044 37.9823ZM29.9664 18.6567C31.3209 17.2738 32.8447 16.6286 34.7617 16.6286L34.7598 16.6325H34.8727C36.7157 16.6325 38.1831 17.2758 39.4948 18.6567C40.8279 20.0613 41.5071 21.7039 41.5714 23.6652C41.6142 25.7209 40.933 27.4697 39.487 29.01C38.1617 30.4244 36.7001 31.0834 34.8902 31.0834C34.7578 31.0834 34.6235 31.0794 34.4542 31.0696C32.5801 31.0047 31.0971 30.2906 29.7854 28.8192C28.4484 27.3221 27.847 25.6953 27.8917 23.6848C27.9132 21.7039 28.5924 20.0593 29.9664 18.6567ZM18.5646 28.9656L18.5645 28.9657C18.5484 28.9839 18.5324 29.0021 18.5158 29.0198C17.1905 30.4342 15.7289 31.0932 13.919 31.0932C13.7867 31.0932 13.6524 31.0893 13.4831 31.0795C11.6108 31.0146 10.1259 30.3005 8.8142 28.829C7.47913 27.332 6.87581 25.7051 6.92058 23.6947C6.94198 21.7137 7.61925 20.0692 8.99519 18.6666C10.3497 17.2836 11.8736 16.6384 13.7906 16.6384H13.9034C15.7465 16.6384 17.2139 17.2817 18.5256 18.6646C18.5554 18.6961 18.5835 18.7275 18.6116 18.759C18.6257 18.7748 18.6397 18.7905 18.654 18.8062C19.3235 16.5499 20.464 14.4784 22.0559 12.6077C19.7867 10.7979 17.136 9.82803 14.1467 9.72574C13.9852 9.71984 13.8256 9.71787 13.666 9.71787C10.015 9.71787 6.81548 11.087 4.15702 13.7899C1.39735 16.5912 0 20.0003 0 23.9209C0 27.8415 1.29809 30.9811 3.8612 33.7116C6.43793 36.4577 9.6277 37.8977 13.3351 37.9921C13.4986 37.998 13.6621 38 13.8236 38C16.8733 38 19.6115 37.04 21.9898 35.1476C20.3997 33.267 19.271 31.1818 18.6151 28.9116H18.6132C18.5966 28.9293 18.5806 28.9475 18.5646 28.9656ZM48.7721 14.2758V10.133H55.1945V37.0813H48.7721V33.4185C50.7183 30.6015 51.6232 27.4402 51.6232 23.8816C51.6232 20.3229 50.7183 17.1046 48.7721 14.2758Z" fill="url(#paint0_linear_12001_6035)"/>
<path d="M139.207 29.1789C139.207 31.4884 138.471 33.4123 137 34.9526C135.529 36.4929 133.67 37.2621 131.426 37.2621C129.182 37.2621 127.324 36.4929 125.852 34.9526C124.381 33.4123 123.646 31.4884 123.646 29.1789V19.0342H125.993V29.4799C125.993 30.9809 126.536 32.2694 127.622 33.3415C128.707 34.4156 129.976 34.9526 131.426 34.9526C132.876 34.9526 134.143 34.4156 135.231 33.3415C136.317 32.2674 136.862 30.9809 136.862 29.4799V19.0342H139.209V29.1789H139.207Z" fill="white"/>
<path d="M152.982 31.5198C153.104 33.123 152.55 34.5119 151.314 35.6863C150.08 36.8627 148.659 37.3977 147.054 37.2935C145.571 37.1892 144.331 36.5853 143.333 35.4837C142.334 34.3801 141.834 33.0699 141.834 31.5493H144.274V32.1473C144.274 32.7571 144.603 33.3866 145.263 34.0378C145.921 34.6889 146.622 35.0037 147.363 34.984C148.352 34.9624 149.134 34.6594 149.71 34.0752C150.226 33.5322 150.492 32.824 150.514 31.9467C150.533 30.4241 149.679 29.3795 147.947 28.8149L145.88 28.15C143.718 27.4635 142.587 25.9743 142.484 23.6845C142.424 22.3114 142.881 21.1351 143.862 20.1554C144.843 19.1777 146.024 18.6564 147.41 18.5935C148.607 18.5305 149.728 18.922 150.771 19.7639C151.814 20.6059 152.376 21.6524 152.458 22.9016V23.4327H149.988V23.0216C149.988 22.3901 149.726 21.8786 149.2 21.4891C148.675 21.0996 148.073 20.9049 147.394 20.9049C146.736 20.9265 146.164 21.1665 145.68 21.6268C145.195 22.0872 144.944 22.6616 144.923 23.3521C144.841 24.6288 145.592 25.5376 147.178 26.0825L149.216 26.773C151.563 27.5835 152.818 29.167 152.984 31.5178L152.982 31.5198Z" fill="white"/>
</g>
<defs>
<linearGradient id="paint0_linear_12001_6035" x1="60.2429" y1="0" x2="60.2429" y2="38" gradientUnits="userSpaceOnUse">
<stop stop-color="#FA0575"/>
<stop offset="1" stop-color="#DD24D0"/>
</linearGradient>
<clipPath id="clip0_12001_6035">
<rect width="153" height="38" fill="white"/>
</clipPath>
</defs>
</svg>
